<?xml version="1.0" encoding="iso-8859-1"?>
<!-- Generator: Adobe Illustrator 19.0.0, SVG Export Plug-In . SVG Version: 6.00 Build 0)  -->
<svg version="1.1" id="Capa_1" xmlns="http://www.w3.org/2000/svg" xmlns:xlink="http://www.w3.org/1999/xlink" x="0px" y="0px"
	 viewBox="0 0 511.999 511.999" style="enable-background:new 0 0 511.999 511.999;" xml:space="preserve">
<g>
	<g>
		<path d="M399.512,394.859v-23.003c7.932,0.566,10.878,4.192,13.597,4.192c3.4,0,4.986-4.306,4.986-6.458
			c0-5.552-10.878-7.933-18.584-8.159v-3.06c0-1.359-1.7-2.606-3.4-2.606c-1.926,0-3.286,1.247-3.286,2.606v3.286
			c-10.765,1.134-21.53,6.799-21.53,21.077c0,14.504,11.331,18.584,21.53,22.21v26.63c-11.558-0.907-14.618-8.839-18.357-8.839
			c-2.833,0-5.213,3.739-5.213,6.458c0,5.553,9.518,13.145,23.57,13.372v3.513c0,1.36,1.36,2.606,3.286,2.606
			c1.7,0,3.4-1.246,3.4-2.606v-3.853c12.237-1.7,20.623-9.406,20.623-23.343C420.135,403.471,409.37,398.486,399.512,394.859z
			 M393.505,392.706c-6.005-2.266-10.878-4.645-10.878-11.105c0-5.892,4.533-8.726,10.878-9.518V392.706z M398.831,431.347v-23.91
			c5.552,2.38,9.972,5.553,9.972,12.692C408.803,426.587,404.951,430.214,398.831,431.347z"/>
	</g>
</g>
<g>
	<g>
		<path d="M493.772,355.036c-12.044-20.516-31.347-41.505-60.409-65.623c0.308-0.444,0.61-0.893,0.884-1.367
			c2.657-4.593,3.322-10.147,1.827-15.237c-2.027-6.897-7.6-11.848-14.189-13.412c2.891-8.17,7.42-16.05,11.288-20.983
			c3.446-4.396,4.03-10.232,1.522-15.231c-2.515-5.016-7.591-8.021-13.165-7.913l-61.068,1.456
			c-5.605,0.135-10.499,3.404-12.772,8.534c-2.266,5.113-1.405,10.914,2.247,15.14c4.097,4.743,8.995,12.396,12.272,20.417
			c-6.517,1.871-11.86,7.084-13.558,14.077c-1.252,5.156-0.321,10.673,2.552,15.135c0.299,0.464,0.625,0.903,0.957,1.335
			c-2.991,2.734-5.871,5.426-8.644,8.08c-0.934-6.54-3.388-12.79-7.309-17.919c-8.757-11.453-28.947-19.953-46.76-27.452
			c-3.186-1.341-6.282-2.647-9.188-3.917c15.447-14.873,24.515-34.994,25.382-56.559c12.918-1.741,22.913-12.831,22.913-26.219
			v-14.67c0-9.602-5.141-18.024-12.814-22.663c6.447-3.508,10.832-10.344,10.832-18.185c0-9.832-6.903-18.07-16.112-20.159
			c-2.514-7.783-6.08-15.945-10.483-23.897c-1.99-3.59-6.512-4.888-10.106-2.902c-3.591,1.989-4.89,6.514-2.902,10.106
			c2.984,5.387,5.537,10.854,7.563,16.166H110.666c11.879-31.253,43.717-72.803,91.899-74.116
			c30.251,0.798,52.068,17.434,65.047,31.259c2.81,2.996,7.515,3.142,10.508,0.332c2.994-2.81,3.142-7.515,0.332-10.508
			C257.028,15.32,230.869,2.887,202.804,2.189c-0.161-0.003-0.319-0.002-0.484,0.004c-0.004,0-0.009,0.001-0.014,0.001
			c-27.508,0.708-53.245,12.727-74.432,34.764c-14.867,15.464-27.01,35.635-33.167,54.839c-9.021,2.226-15.739,10.365-15.739,20.063
			c0,7.841,4.385,14.677,10.831,18.184c-7.673,4.639-12.814,13.061-12.814,22.663v14.67c0,13.361,9.955,24.434,22.836,26.209
			c0.002,2.163,0.003,3.867,0.005,4.981c0.024,20.107,9.028,38.857,24.704,51.443l0.382,0.306c-2.8,1.219-5.769,2.472-8.821,3.756
			c-17.813,7.499-38.004,15.999-46.76,27.452c-8.589,11.234-10.136,27.827-4.053,41.098c-0.235,0.045-0.468,0.099-0.696,0.167
			c-18.788,5.531-34.918,16.745-46.65,32.428C6.2,370.9,0,389.542,0,409.128v4.684c0,4.106,3.328,7.434,7.434,7.434
			c4.106,0,7.434-3.328,7.434-7.434v-4.684c0-16.349,5.177-31.912,14.969-45.004c9.719-12.991,23.055-22.309,38.585-26.965
			l8.084-1.501c5.796,4.36,13.728,8.789,24.086,13.468c32.469,14.669,67.315,22.003,102.174,22.002
			c32.987-0.002,65.982-6.583,96.947-19.723c-1.712,2.81-3.295,5.6-4.751,8.375c-10.966,20.905-15.571,42.188-14.931,69.007
			c0.531,22.291,10.087,43.022,26.906,58.373c3.071,2.803,6.314,5.358,9.699,7.665H72.655v-63.142c0-4.106-3.328-7.434-7.434-7.434
			s-7.434,3.328-7.434,7.434v63.142H18.342c-1.915,0-3.473-1.557-3.473-3.472v-42.702c0-4.106-3.328-7.434-7.434-7.434
			S0,444.545,0,448.651v42.702c0,10.113,8.228,18.341,18.342,18.341h342.602c1.47,0.074,2.945,0.119,4.426,0.119
			c0.701,0,1.406-0.009,2.109-0.025l61.011-1.455c22.465-0.535,43.558-9.587,59.392-25.487
			c16.07-16.135,24.626-37.298,24.094-59.589C511.337,396.435,505.722,375.396,493.772,355.036z M421.809,277.002
			c0.358,1.221,0.204,2.499-0.433,3.6c-0.311,0.538-0.986,1.431-2.201,1.914c-0.027,0.01-0.054,0.015-0.081,0.025
			c-0.06,0.023-0.111,0.039-0.165,0.058c-0.116,0.038-0.228,0.079-0.353,0.109c-0.002,0-0.004,0.001-0.006,0.002
			c-0.003,0.001-0.006,0.002-0.009,0.003c-17.388,4.182-34.381,4.587-51.949,1.239c-0.003,0-0.008-0.002-0.011-0.002
			c-0.122-0.024-0.232-0.058-0.346-0.09c-0.056-0.016-0.108-0.031-0.169-0.051c-0.031-0.01-0.064-0.014-0.095-0.024
			c-1.237-0.424-1.954-1.285-2.289-1.807c-0.689-1.07-0.904-2.341-0.604-3.577c0.502-2.07,2.365-3.48,4.431-3.48
			c0.268,0,0.54,0.023,0.812,0.073c0.894,0.161,1.785,0.308,2.676,0.449c0.023,0.004,0.045,0.008,0.068,0.011
			c14.356,2.267,28.34,1.935,42.574-1.01c0.091-0.019,0.183-0.037,0.273-0.059c0.825-0.173,1.649-0.348,2.476-0.538
			C418.763,273.31,421.13,274.693,421.809,277.002z M361.936,231.563l58.828-1.403c-5.292,7.013-11.737,18.46-14.85,30.599
			c-9.293,1.513-18.333,1.73-27.686,0.664C374.541,249.446,367.557,238.317,361.936,231.563z M313.685,167.377L313.685,167.377
			c-0.001,5.124-3.342,9.481-7.958,11.011c0.007-8.079,0.015-18.965,0.022-29.409c0.001-0.058,0.009-0.113,0.009-0.171
			c0-0.056-0.007-0.111-0.008-0.166c0.002-2.351,0.003-4.673,0.005-6.936c4.604,1.538,7.93,5.888,7.93,11.002V167.377z
			 M91.854,167.377v-14.67c0-5.114,3.327-9.464,7.931-11.002c0.001,2.247,0.003,4.565,0.005,6.926
			c-0.001,0.06-0.009,0.117-0.009,0.177c0,0.061,0.008,0.121,0.009,0.182c0.007,9.885,0.014,20.453,0.02,29.398
			C95.193,176.857,91.854,172.501,91.854,167.377z M99.653,117.678c-3.207,0-5.817-2.61-5.817-5.818
			c0.001-3.208,2.61-5.818,5.817-5.818c0.012,0,205.102,0.003,205.113,0.003c0.015,0,0.03-0.003,0.044-0.003h1.074
			c3.208,0,5.818,2.61,5.818,5.818s-2.61,5.818-5.818,5.818H99.653z M114.651,138.843l-0.004-6.297h176.244
			c0,0.375,0,0.744-0.001,1.126c-0.002,2.434-0.003,5.024-0.005,7.701H114.653C114.653,140.52,114.652,139.673,114.651,138.843z
			 M264.253,160.571v11.018c0,3.217-2.617,5.833-5.833,5.833h-30.363c-3.217,0-5.833-2.617-5.833-5.833v-11.018H264.253z
			 M183.289,160.571v11.018c0,3.217-2.617,5.833-5.833,5.833h-30.364c-3.217,0-5.833-2.617-5.833-5.833v-11.018H183.289z
			 M114.684,186.403v-0.001l-0.021-30.159h11.727v15.347c0,11.415,9.287,20.702,20.702,20.702h30.364
			c11.415,0,20.702-9.287,20.702-20.702v-15.347h9.198v15.347c0,11.415,9.287,20.702,20.702,20.702h30.363
			c11.415,0,20.702-9.287,20.702-20.702v-15.347h11.753c-0.008,11.864-0.017,23.332-0.023,29.661
			c-0.002,2.071-0.004,3.603-0.005,4.404c0,0.194-0.015,0.385-0.017,0.579l-41.066,6.252c-34.263,5.217-68.975,5.021-103.172-0.576
			l-31.903-5.222C114.687,189.842,114.685,188.188,114.684,186.403z M115.333,206.513l28.856,4.724
			c18.505,3.03,37.154,4.545,55.806,4.545c17.37,0,34.743-1.315,52.007-3.943l36.952-5.626
			c-3.489,14.603-11.703,27.734-23.706,37.373l-3.193,2.564c-0.026,0.021-0.053,0.042-0.079,0.063l-34.441,27.658
			c-3.04,2.442-6.863,3.787-10.763,3.787h-28.006c-3.899,0-7.723-1.345-10.764-3.787l-34.442-27.651
			c-0.029-0.023-0.058-0.046-0.087-0.07l-9.633-7.734C123.791,230.349,117.294,219.008,115.333,206.513z M247.176,312.045
			c1.436,2.083,3.057,3.928,4.823,5.507c-14.14,10.63-31.284,16.39-49.229,16.39s-35.09-5.761-49.229-16.39
			c1.766-1.579,3.387-3.424,4.823-5.507c3.754-5.451,5.907-12.163,5.907-18.415v-11.717l4.424,3.552
			c5.672,4.553,12.801,7.061,20.072,7.061h28.006c7.274,0,14.403-2.508,20.073-7.062l4.425-3.553v11.72
			C241.269,299.882,243.422,306.595,247.176,312.045z M298.821,335.577c-61.045,27.576-131.066,27.578-192.106-0.001
			c-21.169-9.564-26.182-15.744-27.355-17.958c-4.484-8.464-3.734-19.846,1.783-27.061c6.357-8.314,25.409-16.335,40.718-22.78
			c5.764-2.427,11.286-4.752,16.048-7.026l11.491,9.225v23.653c0,6.789-5.021,14.217-10.331,15.285
			c-2.708,0.544-4.891,2.546-5.669,5.196c-0.777,2.651-0.02,5.515,1.965,7.435c18.177,17.582,42.115,27.265,67.403,27.265
			c25.288,0,49.226-9.683,67.403-27.265c1.985-1.921,2.742-4.784,1.965-7.435c-0.777-2.65-2.96-4.652-5.669-5.196
			c-5.31-1.068-10.331-8.496-10.331-15.285v-23.66l11.484-9.222c4.764,2.276,10.289,4.602,16.055,7.03
			c15.309,6.445,34.361,14.465,40.718,22.78c5.27,6.892,6.178,17.58,2.343,25.901c-1.087,2.531-3.287,4.545-6.349,7.089
			C316.377,326.601,309.759,330.636,298.821,335.577z M477.348,472.353c-13.118,13.172-30.595,20.672-49.212,21.115l-61.011,1.455
			c-1.667,0.041-3.325,0.005-4.976-0.067c-0.203-0.017-0.406-0.031-0.613-0.031h-0.047c-16.553-0.874-32.189-7.385-44.527-18.646
			c-13.796-12.592-21.632-29.547-22.065-47.745c-0.76-31.855,5.571-58.761,35.879-94.139c4.355-5.546,8.237-9.193,8.237-9.193
			c7.662-8.198,16.58-16.871,26.934-26.165c8.042,1.413,15.985,2.129,23.9,2.129c10.028,0,20.017-1.151,30.111-3.426
			c63.475,51.725,76.162,84.338,77.154,125.972C497.547,441.809,490.527,459.12,477.348,472.353z"/>
	</g>
</g>
<g>
</g>
<g>
</g>
<g>
</g>
<g>
</g>
<g>
</g>
<g>
</g>
<g>
</g>
<g>
</g>
<g>
</g>
<g>
</g>
<g>
</g>
<g>
</g>
<g>
</g>
<g>
</g>
<g>
</g>
</svg>
