<svg id="_x33_0" enable-background="new 0 0 64 64" height="512" viewBox="0 0 64 64" width="512" xmlns="http://www.w3.org/2000/svg"><g><path d="m53 27.184v-2.184h-2v2h-2v3c0 1.654 1.346 3 3 3 .552 0 1 .448 1 1v1h-1c-.552 0-1-.448-1-1v-1h-2v1c0 1.302.839 2.402 2 2.816v2.184h2v-2h2v-3c0-1.654-1.346-3-3-3-.552 0-1-.448-1-1v-1h1c.552 0 1 .448 1 1v1h2v-1c0-1.302-.839-2.402-2-2.816z"/><path d="m52 21c-6.065 0-11 4.935-11 11s4.935 11 11 11 11-4.935 11-11-4.935-11-11-11zm0 20c-4.963 0-9-4.037-9-9s4.037-9 9-9 9 4.037 9 9-4.037 9-9 9z"/><path d="m23 39v-12c0-1.103-.897-2-2-2h-4v-2c0-1.103-.897-2-2-2h-6c-1.103 0-2 .897-2 2v2h-4c-1.103 0-2 .897-2 2v12c0 1.103.897 2 2 2h18c1.103 0 2-.897 2-2zm-12-10v2h-4.465l-2.667-4h16.263l-2.667 4h-4.464v-2zm-2-6h6v2h-6zm-6 6.303 1.871 2.807c.372.557.994.89 1.664.89h4.465v2h2v-2h4.465c.67 0 1.292-.333 1.664-.891l1.871-2.807.002 9.698h-18.002z"/><path d="m19.149 11h3.851v12h18v-12h3.851l-12.851-10.28-3 2.4v-2.12h-6v6.92zm13.851 10h-2v-4h2zm6 0h-4v-6h-6v6h-4v-10h14zm.149-12h-14.298l7.149-5.72zm-14.149-6h2v1.72l-2 1.6z"/><path d="m37.849 52.396-2.096-.299-.38-1.14c1.47-1.004 2.468-2.645 2.605-4.521l.072-.072c1.258-1.258 1.95-2.929 1.95-4.707 0-3.671-2.986-6.657-6.657-6.657h-2.686c-3.671 0-6.657 2.986-6.657 6.657 0 1.778.692 3.449 1.95 4.707l.072.072c.137 1.877 1.134 3.518 2.605 4.521l-.38 1.14-2.096.299c-2.936.42-5.151 2.974-5.151 5.941v4.663h22v-4.663c0-2.967-2.215-5.521-5.151-5.941zm-1.718 1.776-1.329 2.216-1.232-1.232 1.667-1.112zm-9.814-10.848c-.202-.526-.317-1.087-.317-1.667 0-2.568 2.089-4.657 4.657-4.657h2.686c2.568 0 4.657 2.089 4.657 4.657 0 .58-.115 1.141-.317 1.666-.402-.816-1.158-1.439-2.094-1.625l-1.432-.286c-.671-.135-1.157-.728-1.157-1.412v-1h-2v1c0 .684-.487 1.277-1.157 1.412l-1.431.286c-.937.187-1.693.809-2.095 1.626zm1.683 1.316c0-.476.338-.888.804-.98l1.432-.286c.688-.138 1.296-.479 1.765-.952.469.474 1.076.814 1.765.952l1.433.286c.463.092.801.504.801.98v1.358c0 2.206-1.794 4.001-4 4.002-2.206-.001-4-1.796-4-4.002zm3.998 7.36h.004c.534 0 1.049-.077 1.542-.209l.267.8-1.811 1.207-1.81-1.207.267-.8c.492.132 1.007.209 1.541.209zm-3.235 2.044 1.667 1.112-1.232 1.232-1.329-2.216zm-5.763 4.293c0-1.742 1.146-3.268 2.757-3.798l3.045 5.074 2.198-2.199v3.586h-8zm18 2.663h-8v-3.586l2.198 2.198 3.045-5.074c1.611.531 2.757 2.057 2.757 3.799z"/><path d="m10.344 42.499-1.73 1.002c2.37 4.098 5.788 7.516 9.886 9.886l1.002-1.73c-3.796-2.196-6.963-5.363-9.158-9.158z"/><path d="m44.499 51.656 1.002 1.73c3.354-1.94 6.313-4.641 8.555-7.81l-1.633-1.154c-2.076 2.935-4.817 5.436-7.924 7.234z"/><path d="m54.659 19.424 1.813-.848c-2.681-5.733-7.314-10.367-13.048-13.048l-.848 1.813c5.31 2.482 9.601 6.773 12.083 12.083z"/><path d="m21.424 7.341-.848-1.813c-5.733 2.681-10.367 7.314-13.048 13.048l1.813.848c2.482-5.31 6.773-9.601 12.083-12.083z"/></g></svg>