<svg id="Capa_1" enable-background="new 0 0 512 512" height="512" viewBox="0 0 512 512" width="512" xmlns="http://www.w3.org/2000/svg"><g><path d="m192.373 39.644v-2.171c0-4.143-3.358-7.5-7.5-7.5s-7.5 3.357-7.5 7.5v2.171c0 4.143 3.358 7.5 7.5 7.5s7.5-3.358 7.5-7.5z"/><path d="m371.007 212.653c-4.238-2.409-9.471-2.355-13.658.14l-39.402 23.47h-29.51c-7.606 0-13.794 6.188-13.794 13.795v42.633c0 7.606 6.188 13.795 13.794 13.795h29.51l39.402 23.47c4.175 2.486 9.403 2.556 13.658.14 4.237-2.408 6.869-6.932 6.869-11.805v-93.832c0-4.874-2.632-9.397-6.869-11.806zm-81.364 38.61h22.868v40.223h-22.868zm73.233 64.525-35.365-21.065v-46.697l35.365-21.065z"/><path d="m417.535 219.279c-3.769-1.712-8.217-.045-9.931 3.725-1.713 3.771-.046 8.218 3.725 9.932 15.05 6.84 24.774 21.928 24.774 38.438s-9.725 31.599-24.774 38.438c-3.771 1.714-5.438 6.16-3.725 9.932 1.72 3.783 6.171 5.433 9.931 3.725 20.392-9.269 33.568-29.717 33.568-52.095s-13.176-42.826-33.568-52.095z"/><path d="m417.036 271.374c0-10.048-5.019-19.339-13.426-24.854-3.462-2.272-8.113-1.306-10.385 2.157-2.272 3.464-1.306 8.113 2.157 10.386 4.167 2.732 6.654 7.335 6.654 12.312s-2.487 9.579-6.654 12.312c-3.463 2.272-4.429 6.922-2.157 10.386 1.44 2.195 3.835 3.387 6.278 3.387 1.412 0 2.839-.398 4.107-1.229 8.407-5.518 13.426-14.809 13.426-24.857z"/><path d="m474.127 160.387h-124.757c0-17.157 0-98.522 0-113.446 0-25.883-21.053-46.941-46.93-46.941h-178.92c-4.142 0-7.5 3.357-7.5 7.5s3.358 7.5 7.5 7.5h178.92c17.606 0 31.93 14.328 31.93 31.94v5.703c-8.384-7.755-19.61-12.512-31.937-12.512h-80.106c-7.357.041-14.167 4.365-17.772 11.286-3.618 6.944-11.344 11.432-19.682 11.432-8.201 0-15.155-4.245-18.604-11.356-3.327-6.859-10.315-11.319-17.848-11.361h-81.108c-12.328 0-23.555 4.758-31.94 12.515v-5.709c0-17.611 14.327-31.938 31.937-31.938h21.211c4.142 0 7.5-3.357 7.5-7.5s-3.358-7.5-7.5-7.5h-21.211c-25.881 0-46.937 21.056-46.937 46.937v418.127c0 25.88 21.056 46.936 46.937 46.936h145.578c4.142 0 7.5-3.357 7.5-7.5s-3.358-7.5-7.5-7.5h-145.578c-17.61 0-31.937-14.327-31.937-31.937v-5.78c8.385 7.801 19.612 12.585 31.94 12.585h235.12c12.327 0 23.553-4.783 31.937-12.582v5.772c0 17.612-14.324 31.94-31.93 31.94h-54.55c-4.142 0-7.5 3.357-7.5 7.5s3.358 7.5 7.5 7.5h54.55c25.877 0 46.93-21.058 46.93-46.94 0 0 .003-40.09.003-40.129 0-.02-.003-.039-.003-.058v-42.511h124.757c9.649 0 17.5-7.851 17.5-17.5v-186.973c0-9.65-7.851-17.5-17.5-17.5zm-139.757 264.659c-.063 17.559-14.364 31.823-31.937 31.823h-235.12c-17.612 0-31.94-14.328-31.94-31.94v-338.12c0-17.467 14.328-31.678 31.94-31.678h81.067c1.762.01 3.568 1.205 4.393 2.906 5.925 12.22 18.226 19.812 32.1 19.812 13.866 0 26.813-7.655 32.985-19.501.998-1.915 2.827-3.207 4.511-3.217h80.064c17.573 0 31.874 14.148 31.937 31.562v73.694h-82.751c-9.649 0-17.5 7.851-17.5 17.5v52.393c0 2.516-1.34 4.883-3.497 6.178l-37.646 22.597c-4.367 2.621-6.974 7.228-6.974 12.32s2.607 9.699 6.974 12.321l37.645 22.596c2.157 1.295 3.497 3.662 3.497 6.178v52.393c0 9.649 7.851 17.5 17.5 17.5h82.751v42.683zm142.257-60.185c0 1.379-1.122 2.5-2.5 2.5-.705 0-219.06 0-222.508 0-1.378 0-2.5-1.121-2.5-2.5v-52.393c0-7.753-4.129-15.048-10.777-19.039l-36.746-22.056 36.746-22.056c6.648-3.991 10.777-11.286 10.777-19.039v-52.393c0-1.379 1.122-2.5 2.5-2.5h222.508c1.378 0 2.5 1.121 2.5 2.5z"/><path d="m68.538 207.626c3.874 1.462 8.202-.492 9.665-4.368l6.948-18.41h46.802l7.02 18.432c1.474 3.87 5.808 5.815 9.678 4.339 3.871-1.475 5.813-5.808 4.339-9.679 0 0-35.617-93.514-35.64-93.57-1.488-3.638-4.99-5.991-8.92-5.995h-.01c-3.926 0-7.427 2.345-8.921 5.977-.028.068-35.331 93.61-35.331 93.61-1.461 3.875.495 8.202 4.37 9.664zm39.906-84.503 17.796 46.725h-35.429z"/><path d="m71.186 263.5h47.702c4.142 0 7.5-3.357 7.5-7.5s-3.358-7.5-7.5-7.5h-47.702c-4.142 0-7.5 3.357-7.5 7.5s3.358 7.5 7.5 7.5z"/><path d="m71.186 312.303h87.702c4.142 0 7.5-3.357 7.5-7.5s-3.358-7.5-7.5-7.5h-87.702c-4.142 0-7.5 3.357-7.5 7.5s3.358 7.5 7.5 7.5z"/><path d="m202.888 346.105h-131.702c-4.142 0-7.5 3.357-7.5 7.5s3.358 7.5 7.5 7.5h131.702c4.142 0 7.5-3.357 7.5-7.5s-3.358-7.5-7.5-7.5z"/><path d="m202.888 394.908h-131.702c-4.142 0-7.5 3.357-7.5 7.5s3.358 7.5 7.5 7.5h131.702c4.142 0 7.5-3.357 7.5-7.5s-3.358-7.5-7.5-7.5z"/></g></svg>